# xmcd
#
# Track frame offsets: 
#        150
#        19651
#        39135
#        79132
#        143861
#        165975
#        190319
#        216373
#        252672
#
# Disc length: 3684 seconds
#
# Revision: 0
# Processed by: cddbd v1.5.2PL0 Copyright (c) Steve Scherf et al.
# Submitted via: ExactAudioCopy v0.95b4
#
DISCID=750e6209
DTITLE=Shun Kikuta and J.W. Williams - Live and Kickin'
DYEAR=1996
DGENRE=Blues
TTITLE0=Love of Mine
TTITLE1=Luv Somebody
TTITLE2=Drinking Gasoline
TTITLE3=Turning Point - Turn Back The Hands Of Time - Let's Straighten
TTITLE3=It Out (Medley)
TTITLE4=Honest I Do
TTITLE5=Tore Down - Just A Little Bit (Medley)
TTITLE6=Blues With A Feeling
TTITLE7=Don't Ever Leave Me
TTITLE8=Big Boss Man - It's Your thing (Medley)
EXTD=
EXTT0=
EXTT1=
EXTT2=
EXTT3=
EXTT4=
EXTT5=
EXTT6=
EXTT7=
EXTT8=
PLAYORDER=
